# xmcd CD database file
# Copyright (C) 2003 Ti Kan
# 
# Track frame offsets:
#     150
#     18914
#     36793
# 
# Disc length: 730 seconds
# 
# Revision: 1
# Processed by: cddbd v1.4PL0 Copyright (c) Steve Scherf et al.
# Submitted via: DiscPlay 4.0.4
# 
DISCID=1802d803
DTITLE=Shania Twain - Forever And For Always [CDOne)
DYEAR=1900
DGENRE=
TTITLE0=Forever And For Always (Edit)
TTITLE1=Man! I Feel Like A Woman (Live)
TTITLE2=Don't Be Stupid (Live)
EXTD=
EXTT0=
EXTT1=
EXTT2=
PLAYORDER=
